<?xml version="1.0" standalone="no"?>
<!DOCTYPE svg PUBLIC "-//W3C//DTD SVG 20010904//EN"
 "http://www.w3.org/TR/2001/REC-SVG-20010904/DTD/svg10.dtd">
<svg version="1.0" xmlns="http://www.w3.org/2000/svg"
 width="1366.000000pt" height="1366.000000pt" viewBox="0 0 1366.000000 1366.000000"
 preserveAspectRatio="xMidYMid meet">
<metadata>
Created by potrace 1.14, written by Peter Selinger 2001-2017
</metadata>
<g transform="translate(0.000000,1366.000000) scale(0.100000,-0.100000)"
fill="#000000" stroke="none">
<path d="M7280 10250 c-12 -7 -16 -52 -22 -240 -8 -247 -6 -265 37 -276 50
-12 55 -2 55 101 l0 95 85 -66 c94 -72 204 -134 240 -134 27 0 49 24 42 45 -4
8 -23 21 -43 30 -41 17 -254 164 -254 175 0 4 39 36 88 72 48 37 107 87 132
112 37 38 43 50 34 64 -6 9 -25 18 -41 20 -25 3 -41 -7 -89 -51 -33 -29 -88
-77 -124 -107 l-65 -53 -3 98 c-1 54 -8 105 -14 112 -12 15 -37 17 -58 3z"/>
<path d="M5746 10227 c-21 -22 -23 -33 -30 -202 -3 -99 -12 -230 -19 -292 -7
-62 -10 -119 -5 -127 15 -26 123 -30 210 -7 100 26 150 52 214 113 160 151
133 332 -63 432 -50 25 -260 106 -275 106 -5 0 -19 -10 -32 -23z m207 -142
c133 -56 187 -123 167 -210 -10 -45 -50 -104 -90 -134 -54 -39 -184 -76 -230
-64 -21 6 -22 10 -16 67 3 34 11 129 17 211 6 83 13 156 15 164 5 17 27 11
137 -34z"/>
<path d="M6487 10072 c-52 -26 -57 -27 -62 -11 -9 26 -42 33 -69 15 -22 -14
-24 -24 -31 -148 -13 -237 -14 -223 20 -226 54 -5 65 12 71 123 4 58 13 111
21 125 19 33 70 68 111 76 31 6 32 6 32 -29 0 -39 16 -51 56 -41 44 11 59 78
28 122 -23 34 -104 31 -177 -6z"/>
<path d="M6862 10080 c-104 -48 -142 -100 -142 -194 0 -44 5 -60 26 -85 44
-53 150 -67 247 -32 52 18 54 18 76 0 27 -22 64 -25 80 -5 9 10 5 24 -15 60
-26 47 -28 82 -12 216 4 35 -39 54 -137 58 -64 2 -89 -2 -123 -18z m152 -142
c3 -85 3 -87 -23 -97 -51 -19 -73 -23 -107 -17 -47 9 -64 30 -64 80 0 34 6 48
33 73 40 40 72 53 120 50 l39 -2 2 -87z"/>
<path d="M7845 10055 c-42 -20 -59 -35 -84 -75 -41 -68 -23 -160 43 -218 51
-44 101 -64 171 -65 110 -3 171 57 169 168 -1 91 -48 168 -117 194 -40 15
-146 13 -182 -4z m162 -77 c23 -18 43 -72 43 -111 0 -91 -108 -125 -180 -57
-25 23 -30 36 -30 73 0 48 26 91 64 108 26 11 83 4 103 -13z"/>
<path d="M8234 10050 c-13 -13 -6 -357 8 -383 11 -21 45 -36 70 -29 15 3 17
16 16 86 -1 94 15 139 68 186 72 63 114 30 114 -90 1 -129 16 -212 46 -237 29
-26 47 -29 66 -9 15 14 14 24 -12 269 -11 107 -33 148 -90 171 -58 23 -90 20
-154 -13 -56 -30 -56 -30 -56 -8 0 48 -49 84 -76 57z"/>
<path d="M7279 9411 c-33 -32 -39 -45 -39 -80 0 -50 -17 -54 -25 -7 -8 39 0
73 23 99 14 15 14 17 -1 17 -32 0 -75 -70 -68 -112 0 -5 -3 -8 -9 -8 -16 0
-11 72 7 92 14 16 14 18 0 18 -33 0 -67 -60 -53 -95 3 -9 2 -13 -4 -10 -5 3
-15 25 -22 48 l-13 42 -3 -42 c-2 -23 2 -51 8 -62 9 -17 8 -20 -5 -15 -18 7
-45 55 -45 79 0 8 -5 15 -11 15 -7 0 -10 -15 -7 -41 l4 -42 -28 34 c-21 25
-28 29 -28 15 0 -9 5 -26 11 -38 16 -30 4 -33 -34 -9 -44 27 -51 26 -43 -3 6
-23 4 -24 -29 -19 -19 3 -42 3 -51 -1 -16 -6 -16 -8 2 -22 18 -14 16 -15 -23
-10 -40 6 -43 4 -43 -16 0 -20 -33 -88 -43 -88 -1 0 -2 21 -1 47 2 59 30 85
159 149 50 25 77 42 60 39 -16 -4 -62 -22 -102 -41 -39 -19 -77 -34 -83 -34
-7 0 -52 -21 -101 -46 -94 -49 -154 -104 -144 -133 3 -11 -3 -25 -15 -36 -12
-11 -20 -31 -20 -52 0 -21 -11 -48 -30 -75 -35 -48 -40 -31 -14 45 16 47 16
115 0 72 -4 -11 -16 -44 -28 -73 -22 -57 -24 -75 -12 -140 7 -45 27 -63 47
-43 6 6 21 11 33 11 26 0 40 16 22 23 -8 3 -6 6 5 6 10 1 16 5 12 10 -3 5 -1
12 5 16 6 4 8 10 5 14 -2 5 7 13 20 19 28 13 34 34 8 26 -15 -5 -16 -4 -3 5 8
6 23 11 33 11 15 0 12 -8 -16 -42 -19 -24 -55 -84 -80 -135 -26 -50 -50 -93
-55 -95 -10 -3 -25 -98 -16 -98 3 0 14 21 25 46 12 25 22 44 24 42 2 -2 -1
-23 -5 -48 -5 -25 -9 -66 -10 -92 0 -38 -3 -46 -15 -42 -10 4 -15 0 -15 -12 0
-30 24 -134 30 -134 4 0 10 42 13 93 4 50 12 121 19 157 l12 65 8 -73 c8 -73
39 -162 56 -162 10 0 -7 91 -19 100 -14 11 -19 120 -9 185 11 69 51 178 57
158 2 -6 -3 -27 -11 -47 -14 -34 -14 -37 5 -46 15 -8 25 -7 42 5 19 13 22 25
22 78 0 60 1 62 28 65 31 4 58 38 61 77 0 14 5 24 11 22 5 -2 25 7 44 20 72
49 221 19 286 -59 14 -16 25 -24 25 -17 0 7 -20 32 -45 56 -25 24 -43 43 -40
43 16 0 109 -54 140 -81 19 -17 35 -27 35 -22 0 17 -75 81 -125 107 -47 24
-48 25 -15 19 19 -3 47 -12 62 -19 15 -8 33 -14 41 -14 7 0 26 -13 42 -30 15
-16 31 -27 36 -25 4 3 21 -11 38 -30 17 -19 35 -35 40 -35 6 0 15 -17 20 -37
10 -35 9 -39 -17 -60 -29 -24 -60 -26 -53 -2 9 30 6 64 -6 64 -7 0 -17 5 -24
12 -7 7 -18 8 -28 3 -9 -5 -24 -11 -33 -14 -11 -3 -18 -15 -18 -30 0 -18 4
-24 14 -20 9 3 17 -3 21 -15 3 -12 10 -21 14 -21 5 0 20 -15 35 -34 l26 -35
-37 6 c-62 10 -141 43 -188 79 -25 19 -45 30 -45 25 0 -13 64 -67 101 -87 17
-8 28 -18 26 -21 -7 -7 -95 42 -127 70 -14 12 -37 37 -52 55 -16 19 -28 32
-29 30 0 -2 -3 -28 -5 -58 -5 -73 -38 -180 -66 -215 -22 -28 -13 -27 27 3 11
8 3 -2 -18 -23 -32 -31 -44 -36 -68 -31 -16 3 -29 4 -29 3 0 -1 10 -27 22 -57
15 -40 22 -78 22 -137 1 -45 2 -80 4 -78 2 2 7 25 12 52 8 43 9 40 6 -28 -3
-49 -12 -94 -26 -127 l-22 -50 75 -87 c42 -48 97 -126 123 -173 50 -88 69 -99
35 -19 -11 26 -19 47 -16 47 7 0 57 -96 87 -165 28 -66 29 -68 23 -27 -3 24
-17 71 -30 104 -14 34 -23 63 -21 65 8 8 95 -176 117 -247 30 -94 32 -258 6
-330 l-17 -45 20 23 c33 39 43 98 37 217 -3 82 -2 104 6 85 6 -14 11 -74 11
-135 1 -103 -1 -114 -30 -176 -38 -79 -86 -129 -162 -169 -62 -32 -46 -41 27
-15 102 36 174 113 218 234 22 61 24 63 20 24 -7 -62 -49 -146 -103 -203 -53
-57 -47 -67 12 -16 52 45 100 126 120 206 16 64 16 151 -2 318 -5 43 -3 52 10
52 21 0 36 -31 36 -77 1 -38 1 -38 15 -13 21 37 18 78 -10 138 -13 28 -22 52
-20 52 2 0 -1 15 -6 33 -25 83 -2 167 39 141 12 -8 18 -29 22 -75 5 -61 6 -63
19 -39 24 41 20 138 -7 183 -12 21 -18 35 -12 32 21 -13 8 11 -21 40 -60 59
-87 153 -59 206 15 26 62 49 105 49 44 0 44 -12 0 -61 -19 -22 -35 -44 -35
-49 0 -25 50 -60 84 -60 51 0 86 -16 86 -40 0 -17 -3 -18 -25 -10 -29 11 -75
-5 -75 -27 0 -16 12 -17 28 -1 6 6 14 9 17 6 4 -3 -5 -17 -19 -31 -14 -15 -26
-30 -26 -35 0 -5 14 -24 30 -42 29 -33 30 -33 30 -9 1 21 2 22 11 7 15 -26 27
-22 22 6 -4 17 1 27 16 35 12 7 21 21 21 32 0 12 9 32 19 45 16 20 20 21 25 8
3 -9 6 -27 6 -41 0 -18 4 -24 14 -20 20 8 26 -14 26 -100 0 -55 4 -79 16 -91
13 -13 15 -31 12 -101 -3 -47 -9 -95 -13 -105 -7 -16 -5 -18 9 -13 17 7 18 3
11 -40 -3 -27 -17 -71 -30 -100 -14 -32 -19 -53 -13 -55 16 -6 -7 -68 -42
-117 -20 -27 -25 -41 -17 -45 7 -3 -14 -29 -51 -65 -37 -35 -58 -62 -52 -66
15 -9 -66 -72 -115 -88 -22 -8 -40 -20 -40 -27 0 -14 -92 -39 -149 -40 -22 0
-27 -4 -22 -16 5 -14 -4 -16 -79 -13 -68 3 -84 1 -80 -9 4 -11 -5 -12 -47 -7
-29 4 -64 12 -77 17 -17 6 -27 5 -32 -3 -8 -14 -82 2 -133 28 -21 11 -31 12
-34 4 -6 -18 -17 -13 -76 35 -31 25 -60 43 -65 40 -15 -10 -108 123 -137 194
-59 145 -39 326 47 424 23 26 55 54 72 63 l31 16 -17 -27 c-10 -14 -16 -26
-13 -26 2 0 28 11 59 25 30 14 81 29 113 33 l59 8 -40 12 c-233 69 -422 -134
-402 -431 l5 -82 -33 70 c-147 307 -137 604 25 765 25 25 61 54 79 64 34 19
34 19 29 0 -3 -10 -9 -28 -14 -39 -6 -15 1 -12 29 13 43 36 128 82 154 82 12
0 14 3 7 10 -17 17 -140 -7 -212 -40 -117 -55 -199 -161 -239 -312 -27 -102
-21 -298 13 -410 3 -10 1 -18 -4 -18 -13 0 -85 161 -116 258 -81 259 -76 556
15 806 16 46 36 92 44 102 13 18 14 17 20 -9 10 -39 22 -33 29 16 4 23 17 73
31 110 30 86 15 75 -65 -45 -72 -110 -133 -248 -167 -376 -34 -131 -43 -352
-20 -498 28 -176 104 -376 192 -504 20 -30 38 -61 39 -68 1 -7 26 -36 54 -65
29 -29 52 -57 52 -62 1 -6 25 -28 55 -50 30 -22 55 -46 55 -52 0 -7 19 -22 43
-34 68 -35 89 -51 77 -59 -6 -4 29 -21 79 -39 57 -20 88 -37 85 -44 -3 -8 23
-18 77 -29 46 -10 85 -22 88 -27 4 -5 43 -11 89 -13 45 -2 82 -6 82 -10 0 -4
36 -5 80 -1 54 4 80 3 80 -5 0 -7 25 -3 68 9 37 12 83 22 102 23 19 2 67 19
107 39 49 25 73 33 76 24 3 -7 28 11 63 44 33 31 64 55 70 53 6 -3 32 23 59
56 26 33 51 57 56 55 4 -3 25 26 46 65 22 40 43 68 50 66 11 -5 26 36 48 127
4 15 13 27 20 27 9 0 16 20 20 58 13 103 21 137 33 134 9 -1 12 24 12 88 0 73
3 90 15 90 18 0 18 -8 -1 85 -14 69 -14 79 -1 86 13 8 13 14 -3 56 -29 79 -33
103 -15 97 20 -8 19 -1 -4 44 -31 61 -35 82 -16 82 9 0 15 3 13 8 -2 4 -16 31
-31 60 -23 43 -25 51 -10 44 10 -6 53 -13 96 -17 56 -5 77 -11 77 -21 0 -12 5
-11 26 3 21 13 25 22 20 46 -10 47 -25 60 -68 54 -21 -3 -38 -1 -38 4 0 5 9 9
20 9 11 0 20 4 20 9 0 34 -65 11 -75 -26 -3 -13 -11 -23 -18 -20 -26 8 -17 40
22 82 46 50 50 71 20 109 -18 23 -28 26 -77 26 -31 0 -64 5 -72 10 -13 9 -13
12 4 25 28 21 96 28 145 15 55 -15 116 -70 137 -126 17 -44 17 -68 -1 -219
-13 -108 -10 -128 21 -162 18 -19 24 -22 20 -10 -17 54 -18 98 -2 122 38 58
66 19 66 -94 0 -53 4 -84 13 -93 8 -7 19 -29 26 -49 11 -35 70 -114 78 -105 2
2 -3 18 -11 35 -18 34 -21 103 -6 132 23 41 63 16 113 -71 43 -75 60 -159 55
-281 -3 -103 -5 -111 -45 -190 -36 -70 -39 -78 -17 -59 85 80 117 297 71 470
-9 30 -14 57 -11 59 6 6 45 -87 60 -144 18 -67 18 -187 -1 -260 -22 -85 -85
-210 -155 -304 -33 -45 -60 -84 -60 -88 0 -4 30 22 66 57 127 125 220 292 266
477 28 113 31 325 5 452 -9 46 -16 86 -13 88 7 8 36 -117 51 -222 26 -178 35
-206 29 -86 -5 109 -30 256 -64 362 -10 35 -18 65 -16 66 6 6 44 -109 72 -212
14 -55 28 -102 30 -104 7 -8 -10 106 -26 176 -10 42 -13 74 -8 75 26 9 -59
237 -141 379 -43 76 -53 87 -102 110 -30 15 -81 50 -112 79 -64 58 -79 90 -18
38 21 -18 59 -43 82 -56 l44 -23 -40 33 c-71 58 -141 133 -184 197 -24 35 -46
59 -50 53 -14 -23 -61 -32 -114 -21 -49 10 -182 68 -174 75 2 2 31 -7 66 -21
67 -27 181 -45 181 -28 0 6 -22 13 -49 17 -62 8 -196 75 -267 132 -29 24 -55
44 -57 44 -2 0 -1 -55 1 -123 4 -110 2 -128 -18 -174 -12 -28 -28 -54 -35 -57
-9 -3 -7 10 8 42 15 34 21 66 21 115 0 89 -19 108 -20 21 -2 -84 -40 -163 -97
-205 -44 -32 -55 -32 -38 -1 14 26 14 82 1 82 -6 0 -22 11 -35 24 -13 14 -34
27 -45 31 -11 4 -17 11 -14 16 4 7 -5 9 -22 7 -22 -2 -30 -10 -37 -38 -6 -23
-5 -36 2 -38 6 -2 11 -11 11 -19 0 -16 34 -15 73 2 25 11 21 -10 -8 -39 -36
-37 -66 -22 -101 50 -24 50 -26 61 -17 95 10 36 9 39 -11 39 -12 0 -27 -5 -34
-12 -9 -9 -12 -9 -12 3 0 21 20 38 36 32 21 -8 17 15 -4 26 -13 7 -27 6 -45
-4 -31 -16 -36 -6 -9 18 21 19 54 22 83 7 29 -16 23 5 -8 30 -27 21 -55 23
-97 5 -16 -7 -17 -6 -7 14 26 48 97 50 152 4 40 -34 49 -22 12 16 -35 34 -89
48 -133 33 -38 -14 -39 -2 -1 21 36 21 125 22 165 2 15 -8 33 -15 38 -15 19 0
-6 23 -46 41 -104 47 -221 0 -260 -106 l-15 -40 0 33 c-1 43 22 98 48 114 25
15 27 28 5 28 -9 0 -34 -17 -55 -39z m-631 -191 c-22 -30 -35 -41 -22 -17 9
16 36 47 41 47 2 0 -6 -13 -19 -30z m32 -19 c-5 -11 -15 -23 -21 -27 -6 -3 -3
5 6 20 20 30 30 35 15 7z m660 -421 c0 -5 -10 -10 -22 -10 -19 0 -20 2 -8 10
19 13 30 13 30 0z m-53 -16 c-3 -3 -12 -4 -19 -1 -8 3 -5 6 6 6 11 1 17 -2 13
-5z m630 -351 c-2 -16 -4 -3 -4 27 0 30 2 43 4 28 2 -16 2 -40 0 -55z m-328
-135 c5 -13 8 -24 6 -26 -3 -4 -75 38 -75 44 0 2 14 4 30 4 23 0 33 -6 39 -22z
m-439 -523 c0 -5 -5 -3 -10 5 -5 8 -10 20 -10 25 0 6 5 3 10 -5 5 -8 10 -19
10 -25z m27 -97 c-3 -8 -6 -5 -6 6 -1 11 2 17 5 13 3 -3 4 -12 1 -19z"/>
<path d="M11301 8405 c-171 -20 -407 -61 -580 -101 -80 -19 -162 -34 -182 -34
-149 0 -645 -266 -1281 -687 -136 -89 -250 -163 -253 -163 -3 0 -37 29 -76 66
-38 36 -74 62 -79 59 -5 -3 -15 5 -21 18 -10 23 2 97 26 160 10 24 -17 23 -39
-2 -20 -22 -46 -102 -46 -143 0 -15 -9 -37 -20 -48 -11 -11 -20 -27 -20 -35 0
-27 37 -90 94 -160 31 -37 56 -75 56 -84 0 -37 -32 -135 -64 -199 -89 -178
-277 -413 -541 -678 -207 -207 -526 -494 -549 -494 -4 0 -23 12 -42 26 -59 45
-108 32 -120 -33 -6 -31 -8 -33 -21 -20 -11 10 -27 13 -54 10 -39 -6 -40 -6
-29 21 14 39 12 86 -4 92 -8 3 -45 -10 -83 -30 -38 -19 -87 -37 -109 -41 -37
-6 -36 -4 35 38 79 48 91 60 91 93 0 46 -25 42 -219 -40 l-133 -56 -28 20
c-16 11 -35 20 -43 20 -14 0 -35 -45 -41 -88 -4 -25 -52 -33 -151 -26 l-89 7
-71 72 c-62 64 -87 81 -225 151 -86 44 -180 84 -211 90 -97 21 -254 108 -450
251 -115 84 -117 85 -225 243 -60 88 -114 159 -121 160 -18 0 -33 57 -33 124
0 80 -8 106 -32 106 -15 0 -17 3 -8 19 5 11 10 40 10 65 0 36 -5 48 -26 65
-27 21 -64 28 -64 12 0 -5 7 -11 15 -15 31 -12 10 -140 -25 -149 -21 -5 -40
-44 -40 -82 0 -24 -2 -24 -67 19 -433 279 -986 516 -1553 665 -340 90 -827
162 -1070 160 l-95 -1 110 -23 c141 -29 245 -64 373 -125 378 -180 714 -525
948 -975 56 -107 65 -130 59 -157 -11 -48 -60 -142 -96 -183 -38 -43 -29 -46
19 -4 49 43 113 70 181 76 101 9 369 -70 566 -167 262 -130 513 -338 690 -572
129 -170 123 -153 171 -481 24 -159 45 -292 48 -294 7 -8 15 64 31 297 22 320
15 292 89 345 152 108 253 136 472 132 142 -3 168 -6 239 -30 101 -35 114 -42
97 -59 -22 -22 -13 -59 22 -94 32 -32 59 -40 106 -34 21 2 42 31 35 49 -7 18
21 61 39 61 17 0 26 -22 26 -63 0 -34 27 -86 67 -129 24 -25 24 -26 5 -32 -28
-9 -72 -45 -72 -59 0 -7 21 -29 47 -50 47 -38 48 -38 113 -31 86 9 98 19 66
53 l-25 26 34 45 c70 93 79 102 101 112 27 13 43 4 122 -67 l53 -48 -44 -46
c-52 -54 -63 -72 -77 -134 -21 -98 37 -256 136 -368 30 -33 54 -66 54 -74 0
-7 -26 -31 -57 -52 -32 -21 -68 -54 -81 -73 -22 -31 -23 -42 -18 -104 10 -109
37 -120 77 -31 l18 40 0 -70 c1 -73 11 -95 42 -95 30 0 49 40 49 101 0 43 5
60 19 74 20 17 20 16 23 -41 4 -74 20 -79 76 -27 l41 38 -6 80 c-3 51 -12 92
-24 113 -25 44 -27 157 -2 184 19 21 10 49 -38 109 l-29 37 64 36 c84 47 119
47 180 0 72 -55 106 -107 106 -164 0 -30 -6 -52 -15 -60 -18 -15 -19 -53 -4
-155 9 -61 15 -75 29 -75 40 0 45 8 42 69 -3 55 -2 60 26 80 l30 21 7 -81 c8
-89 24 -110 56 -71 26 33 43 27 89 -33 163 -211 479 -416 862 -559 109 -40
342 -109 431 -126 47 -9 60 -16 67 -36 13 -32 51 -32 109 1 23 14 58 25 76 25
59 0 440 109 427 122 -4 4 -52 2 -105 -5 -93 -13 -96 -13 -80 5 9 10 13 21 10
25 -4 3 -64 0 -135 -8 -336 -37 -591 1 -847 127 -330 162 -619 479 -797 874
l-47 105 24 18 c30 23 49 78 40 120 -10 44 -49 120 -101 195 -24 35 -44 67
-44 71 0 10 268 139 395 189 250 99 436 144 585 141 75 -1 104 3 135 17 31 15
61 19 140 18 118 -2 234 -30 413 -100 204 -81 530 -254 551 -292 5 -9 48 -120
97 -247 94 -247 91 -241 99 -233 3 3 -1 20 -9 39 -17 42 -38 165 -71 416 l-25
191 21 69 c30 97 129 301 196 402 114 171 293 333 469 423 191 98 361 140 580
141 l142 1 -37 42 c-20 23 -63 80 -96 129 l-60 87 0 317 c0 286 3 328 24 446
53 297 147 487 290 585 87 60 140 75 265 75 l109 0 -59 13 c-89 20 -490 24
-643 7z"/>
</g>
</svg>
